# xmcd
#
# Track frame offsets:
#	150
#	13115
#	29489
#	43583
#	62129
#	78216
#	97185
#	114862
#	126888
#	140534
#	159481
#	178360
#	195208
#	209127
#	224847
#	242847
#	266389
#
# Disc length: 3565 seconds
#
# Revision: 1
# Processed by: cddbd v1.5.2PL0 Copyright (c) Steve Scherf et al.
# Submitted via: audiograbber 1.83.01
#
DISCID=fd0deb11
DTITLE=Various Artist - MH1152
DYEAR=1900
DGENRE=Karaoke
TTITLE0=Black, Clint - Good Run Of Bad Luck, A
TTITLE1=Brooks and Dunn - That Ain't No Way To Go
TTITLE2=Travis, Randy - Forever Together
TTITLE3=Brooks, Garth - Rodeo
TTITLE4=Keith, Toby - Me Too
TTITLE5=Strait, George - One Night At A Time
TTITLE6=McGraw, Tim - Just To See You Smile
TTITLE7=Lawrence, Tracy - Renegades, Rebels And Rogues
TTITLE8=Alabama - How Do You Fall In Love
TTITLE9=Gill, Vince - When I Call Your Name
TTITLE10=Herndon, Ty - Living In A Moment
TTITLE11=Jackson, Alan - Mercury Blues
TTITLE12=Lonestar - No News
TTITLE13=Sawyer Brown - Cafe On The Corner
TTITLE14=Chesney, Kenny - You Had Me From Hello
TTITLE15=Yoakam, Dwight - It Only Hurts When I Cry
TTITLE16=Data - Data Track
EXTD=
EXTT0=
EXTT1=
EXTT2=
EXTT3=
EXTT4=
EXTT5=
EXTT6=
EXTT7=
EXTT8=
EXTT9=
EXTT10=
EXTT11=
EXTT12=
EXTT13=
EXTT14=
EXTT15=
EXTT16=
PLAYORDER=
